<svg width="232" height="232" viewBox="0 0 232 232" fill="none" xmlns="http://www.w3.org/2000/svg">
<g filter="url(#filter0_d)">
<rect x="26" y="26" width="180" height="180" rx="90" fill="#E0E0E0"/>
</g>
<mask id="mask0" mask-type="alpha" maskUnits="userSpaceOnUse" x="26" y="26" width="180" height="180">
<rect x="26" y="26" width="180" height="180" rx="90" fill="#F6C967"/>
</mask>
<g mask="url(#mask0)">
<path d="M171.291 101.714C174.728 97.9768 178.553 91.4774 177.552 86.1316C177.423 85.4167 177.197 84.7992 176.907 84.263C177.004 83.3531 177.068 82.1345 176.552 81.3871C176.052 80.6559 175.116 81.2083 174.535 81.712C174.373 81.3058 174.131 80.9971 173.776 80.8671C173.082 80.5909 172.582 80.8509 172.162 81.2571C171.71 81.1758 171.259 81.1271 170.807 81.0946C170.887 80.9808 170.952 80.8834 171.033 80.7534C171.775 79.681 172.404 78.7386 172.55 77.4062C172.614 76.805 172.082 75.5214 171.275 76.22C169.919 77.4224 169.096 79.3073 168.322 81.0783C167.708 81.1108 167.111 81.1596 166.53 81.2246C162.77 81.6145 159.075 82.7032 155.508 84.1168C155.395 83.9868 155.298 83.8568 155.169 83.7593C153.523 82.5407 150.247 82.8982 149.924 80.4446C149.505 77.1949 152.297 74.6277 150.36 71.3942C149.634 70.1756 148.133 69.5257 146.842 69.1357C145.019 68.5832 143.857 67.5596 142.937 66.2435C142.533 65.366 142.081 64.5211 141.565 63.7087C141.016 62.4901 140.339 61.3202 139.58 60.199C139.645 59.6466 139.209 59.1591 138.789 58.8991C138.725 58.8504 138.644 58.8341 138.563 58.8017C138.499 58.7042 138.418 58.6229 138.354 58.5254C139.435 58.4279 140.419 58.103 140.677 56.7056C140.839 55.8282 140.565 54.7395 139.935 54.1383C139.709 53.9271 139.403 53.9109 139.08 54.0083C139.338 53.2284 139.403 52.4647 138.434 52.3023C138.079 52.2373 136.288 53.2122 135.271 53.8459C135.336 53.7321 135.4 53.6021 135.465 53.4884C135.546 53.2609 135.626 53.0334 135.707 52.806C135.723 52.741 135.723 52.676 135.707 52.6272C135.852 52.4647 135.933 52.2373 135.885 52.0423C135.207 49.28 132.915 50.6937 131.301 52.1885C131.269 52.1723 131.253 52.156 131.221 52.1398C131.092 50.9536 130.365 50.1737 128.816 50.8399C125.492 49.28 121.796 48.5813 118.327 49.67C118.31 49.67 118.294 49.6862 118.278 49.7025C113.808 49.1825 108.934 50.8074 104.997 52.5947C100.01 54.8533 95.1205 57.973 91.2797 61.8889C87.5519 65.691 84.1629 70.1269 82.4039 75.2289C81.6616 75.9276 81.2743 77.1137 81.0645 78.0399C80.9999 78.3811 80.8708 78.836 80.8385 79.2748C79.9348 78.2024 78.6438 77.1462 77.5141 78.5598C76.5136 79.811 76.675 81.5008 77.5141 82.7194C76.4006 83.4344 74.8191 84.9455 75.2064 86.1479C72.8503 85.4167 70.4619 84.8805 68.0574 84.6368C63.7163 84.1981 58.0358 84.1656 57.0191 89.5113C56.0186 94.8571 59.8433 101.356 63.2806 105.094C65.5238 107.531 68.1058 109.627 70.8654 111.414C70.6233 111.788 70.4297 112.194 70.2521 112.649C69.8003 113.803 69.413 115.395 70.7685 115.996C70.8815 116.045 70.9945 116.029 71.1074 115.964C71.5916 116.078 72.0273 116.045 72.576 115.948C74.5287 115.59 75.9488 116.305 77.143 117.767C78.4663 119.392 79.4184 120.79 81.4195 121.586C82.0327 121.83 82.6137 121.96 83.1946 122.008C82.4039 122.285 81.6131 122.528 80.8385 122.837C76.094 124.641 70.2199 126.639 66.9277 130.685C65.2333 132.765 63.5549 135.722 63.2161 138.663C63.2483 140.223 63.4258 141.75 63.9584 143.131C68.4608 151.548 81.4356 144.594 86.8579 141.084C92.1189 137.688 97.1216 133.886 102.092 130.1C102.947 131.904 103.916 133.642 105.029 135.283C104.593 135.316 104.142 135.413 103.722 135.56C102.463 136.015 102.027 136.551 102.092 137.883C102.124 138.631 102.14 139.362 102.14 140.077C101.027 139.833 99.865 139.719 98.7031 139.622C97.5734 139.524 94.7977 138.907 93.7649 139.8C92.5546 140.125 91.4733 142.774 91.1344 143.538C90.6019 144.707 90.3921 145.877 90.0371 147.096C89.8596 147.697 89.795 148.25 90.376 148.558C90.4728 148.607 90.618 148.575 90.7149 148.51C90.731 148.51 90.7633 148.51 90.7794 148.51C90.8278 148.493 90.8762 148.477 90.9247 148.461C90.9408 148.818 90.7794 149.192 90.7471 149.55C90.2953 150.427 89.1656 151.012 89.5368 152.296C90.0855 154.18 91.1667 155.903 92.4577 157.349C93.426 158.421 96.0565 160.42 97.5734 160.517C98.5901 160.582 99.0904 160.127 99.4293 159.445C99.7198 159.185 100.107 159.12 100.527 159.12C100.995 159.136 101.204 159.526 101.398 159.884C101.253 160.598 101.463 161.232 102.366 161.898C104.303 163.328 107.498 163.864 109.838 163.897C110.742 163.913 111.759 163.929 112.775 163.881C113.647 167.634 114.534 171.387 115.519 175.108C116.213 177.741 116.955 180.373 117.423 183.07C117.826 185.377 117.455 187.49 116.81 189.586C113.921 191.081 111.065 192.624 108.305 194.428C105.884 196.02 103.383 197.418 100.898 198.88C100.285 199.237 99.8166 199.692 99.4131 200.18C99.3809 200.131 99.3647 200.082 99.3324 200.034C99.284 199.952 99.1711 199.887 99.0742 199.887C95.2819 199.741 93.7004 206.712 93.1033 209.36C92.4255 212.399 92.022 215.518 91.667 218.606C91.4572 220.458 91.6831 222.489 92.6675 224.081C93.4744 225.381 94.9268 225.121 95.9758 224.423C97.5573 223.35 98.1382 220.604 98.5094 218.882C99.1711 215.941 99.3809 212.87 99.9295 209.88C100.172 208.564 100.349 207.248 100.462 205.916C101.14 203.072 103.528 201.561 106.013 200.229C108.773 198.766 111.484 197.239 114.244 195.809C114.437 195.711 114.631 195.614 114.825 195.516C113.453 199.92 112.436 204.404 111.775 208.97C111.355 211.927 111 214.885 110.597 217.842C110.225 220.588 110.597 223.35 110.193 226.064C110.177 226.194 110.193 226.291 110.225 226.372C109.596 228.517 109.693 232.124 109.887 232.888C110.548 235.423 114.954 233.847 116.358 233.278C120.295 231.653 124.169 228.94 127.461 226.259C129.591 224.52 133.044 222.278 134.013 219.548C134.077 219.369 134.077 219.223 134.045 219.077C134.497 217.988 134.303 216.981 133.335 216.006C132.06 214.722 129.72 215.437 128.3 215.941C124.298 217.371 120.941 220.555 117.197 222.635C116.907 222.749 116.632 222.879 116.342 223.009C115.874 223.22 115.051 223.74 114.486 223.594C113.647 222.993 115.293 215.551 115.535 214.641C117.116 208.564 119.182 202.585 121.183 196.621C121.732 194.997 122.184 193.372 122.506 191.698C126.089 189.927 129.655 188.107 133.028 185.995C135.255 184.614 137.514 182.956 139.128 180.844C140.516 179.024 139.984 176.766 139.354 174.767C137.95 170.201 135.949 165.847 134.158 161.427C134.707 161.248 135.223 161.037 135.691 160.842C137.321 160.127 140.29 159.039 140.839 157.138C140.871 157.024 140.887 156.91 140.903 156.796C140.92 156.78 140.936 156.78 140.952 156.764C140.968 156.731 141 156.683 140.968 156.65C140.952 156.634 140.952 156.634 140.952 156.634C140.968 156.601 140.984 156.585 140.984 156.553C141.033 156.455 141.065 156.341 141.097 156.244C141.097 156.228 141.113 156.211 141.113 156.195C141.178 156.114 141.242 156.016 141.307 155.951C141.452 155.821 141.63 155.724 141.775 155.61C141.92 155.756 142.114 155.854 142.356 155.87C143.227 155.935 144.05 154.652 144.486 154.083C146.648 151.223 148.052 146.056 146.987 142.579C146.955 142.465 146.891 142.4 146.826 142.368C146.794 142.286 146.745 142.238 146.681 142.173C146.455 141.896 145.987 141.75 145.551 141.75C145.632 141.084 145.47 140.385 145.244 139.719C145.115 138.939 145.002 138.127 144.631 137.412C144.389 136.957 144.034 136.015 143.502 135.803C143.356 135.755 143.195 135.771 143.034 135.82C143.017 135.82 143.001 135.82 142.985 135.82C141.178 136.551 139.419 137.103 137.74 138.159C137.046 138.598 136.175 139.069 135.433 139.654C135.433 139.622 135.433 139.605 135.449 139.573C134.287 140.759 132.237 136.421 131.915 135.527C131.818 135.267 131.737 135.023 131.656 134.763C131.35 133.983 131.108 133.22 130.963 132.537C130.64 131.14 130.866 129.791 131.156 128.459C131.205 127.874 131.253 127.273 131.398 126.72C131.463 126.477 131.543 126.249 131.624 126.022C131.899 126.233 132.157 126.428 132.431 126.639C137.466 130.458 142.501 134.308 147.827 137.737C153.249 141.23 166.207 148.185 170.726 139.784C171.259 138.403 171.436 136.892 171.468 135.316C171.13 132.375 169.451 129.418 167.757 127.338C164.448 123.292 158.59 121.293 153.83 119.49C150.36 118.174 146.907 117.166 143.372 116.386C147.891 115.525 152.281 113.998 156.476 112.097C161.931 109.529 167.16 106.215 171.291 101.714ZM109.919 124.137C110.58 123.633 111.242 123.129 111.904 122.593C111.291 124.316 110.661 126.022 109.951 127.744C109.064 129.889 108.192 132.05 107.401 134.227C107.369 134.13 107.321 134.048 107.305 133.951C106.691 132.245 106.336 130.474 105.868 128.735C105.771 128.345 105.626 127.939 105.465 127.533C106.949 126.395 108.434 125.274 109.919 124.137ZM122.926 186.417C122.861 186.45 122.813 186.482 122.748 186.515C122.522 183.59 121.78 180.665 121.199 177.806C120.134 172.509 119.263 167.212 117.939 161.996C118.149 161.996 118.375 161.996 118.585 162.012C118.827 162.012 119.069 162.077 119.295 162.077C119.602 162.565 120.005 162.938 120.634 163.003C122.006 163.15 123.781 162.955 125.088 162.532C126.057 162.207 126.831 161.882 127.041 160.826C129.349 164.921 131.624 169.031 133.157 173.516C133.641 174.93 134.013 176.425 134.061 177.919C134.142 179.95 132.157 181.104 130.737 182.144C128.397 183.866 125.524 185.069 122.926 186.417ZM79.0795 85.8716C78.9181 86.3266 78.7568 86.8303 78.6115 87.334C78.1435 87.1553 77.6917 86.9765 77.2237 86.8141C77.8692 86.6191 78.5308 86.2616 79.0795 85.8716ZM90.1178 119.474C90.5051 119.555 90.8924 119.636 91.2797 119.717C90.4728 119.896 89.6498 120.075 88.8429 120.286C89.2786 120.026 89.6982 119.75 90.1178 119.474Z" fill="url(#paint0_linear)"/>
<g filter="url(#filter1_b)">
<path d="M171.291 101.714C174.728 97.9768 178.553 91.4774 177.552 86.1316C177.423 85.4167 177.197 84.7992 176.907 84.263C177.004 83.3531 177.068 82.1345 176.552 81.3871C176.052 80.6559 175.116 81.2083 174.535 81.712C174.373 81.3058 174.131 80.9971 173.776 80.8671C173.082 80.5909 172.582 80.8509 172.162 81.2571C171.71 81.1758 171.259 81.1271 170.807 81.0946C170.887 80.9808 170.952 80.8834 171.033 80.7534C171.775 79.681 172.404 78.7386 172.55 77.4062C172.614 76.805 172.082 75.5214 171.275 76.22C169.919 77.4224 169.096 79.3073 168.322 81.0783C167.708 81.1108 167.111 81.1596 166.53 81.2246C162.77 81.6145 159.075 82.7032 155.508 84.1168C155.395 83.9868 155.298 83.8568 155.169 83.7593C153.523 82.5407 150.247 82.8982 149.924 80.4446C149.505 77.1949 152.297 74.6277 150.36 71.3942C149.634 70.1756 148.133 69.5257 146.842 69.1357C145.019 68.5832 143.857 67.5596 142.937 66.2435C142.533 65.366 142.081 64.5211 141.565 63.7087C141.016 62.4901 140.339 61.3202 139.58 60.199C139.645 59.6466 139.209 59.1591 138.789 58.8991C138.725 58.8504 138.644 58.8341 138.563 58.8017C138.499 58.7042 138.418 58.6229 138.354 58.5254C139.435 58.4279 140.419 58.103 140.677 56.7056C140.839 55.8282 140.565 54.7395 139.935 54.1383C139.709 53.9271 139.403 53.9109 139.08 54.0083C139.338 53.2284 139.403 52.4647 138.434 52.3023C138.079 52.2373 136.288 53.2122 135.271 53.8459C135.336 53.7321 135.4 53.6021 135.465 53.4884C135.546 53.2609 135.626 53.0334 135.707 52.806C135.723 52.741 135.723 52.676 135.707 52.6272C135.852 52.4647 135.933 52.2373 135.885 52.0423C135.207 49.28 132.915 50.6937 131.301 52.1885C131.269 52.1723 131.253 52.156 131.221 52.1398C131.092 50.9536 130.365 50.1737 128.816 50.8399C125.492 49.28 121.796 48.5813 118.327 49.67C118.31 49.67 118.294 49.6862 118.278 49.7025C113.808 49.1825 108.934 50.8074 104.997 52.5947C100.01 54.8533 95.1205 57.973 91.2797 61.8889C87.5519 65.691 84.1629 70.1269 82.4039 75.2289C81.6616 75.9276 81.2743 77.1137 81.0645 78.0399C80.9999 78.3811 80.8708 78.836 80.8385 79.2748C79.9348 78.2024 78.6438 77.1462 77.5141 78.5598C76.5136 79.811 76.675 81.5008 77.5141 82.7194C76.4006 83.4344 74.8191 84.9455 75.2064 86.1479C72.8503 85.4167 70.4619 84.8805 68.0574 84.6368C63.7163 84.1981 58.0358 84.1656 57.0191 89.5113C56.0186 94.8571 59.8433 101.356 63.2806 105.094C65.5238 107.531 68.1058 109.627 70.8654 111.414C70.6233 111.788 70.4297 112.194 70.2521 112.649C69.8003 113.803 69.413 115.395 70.7685 115.996C70.8815 116.045 70.9945 116.029 71.1074 115.964C71.5916 116.078 72.0273 116.045 72.576 115.948C74.5287 115.59 75.9488 116.305 77.143 117.767C78.4663 119.392 79.4184 120.79 81.4195 121.586C82.0327 121.83 82.6137 121.96 83.1946 122.008C82.4039 122.285 81.6131 122.528 80.8385 122.837C76.094 124.641 70.2199 126.639 66.9277 130.685C65.2333 132.765 63.5549 135.722 63.2161 138.663C63.2483 140.223 63.4258 141.75 63.9584 143.131C68.4608 151.548 81.4356 144.594 86.8579 141.084C92.1189 137.688 97.1216 133.886 102.092 130.1C102.947 131.904 103.916 133.642 105.029 135.283C104.593 135.316 104.142 135.413 103.722 135.56C102.463 136.015 102.027 136.551 102.092 137.883C102.124 138.631 102.14 139.362 102.14 140.077C101.027 139.833 99.865 139.719 98.7031 139.622C97.5734 139.524 94.7977 138.907 93.7649 139.8C92.5546 140.125 91.4733 142.774 91.1344 143.538C90.6019 144.707 90.3921 145.877 90.0371 147.096C89.8596 147.697 89.795 148.25 90.376 148.558C90.4728 148.607 90.618 148.575 90.7149 148.51C90.731 148.51 90.7633 148.51 90.7794 148.51C90.8278 148.493 90.8762 148.477 90.9247 148.461C90.9408 148.818 90.7794 149.192 90.7471 149.55C90.2953 150.427 89.1656 151.012 89.5368 152.296C90.0855 154.18 91.1667 155.903 92.4577 157.349C93.426 158.421 96.0565 160.42 97.5734 160.517C98.5901 160.582 99.0904 160.127 99.4293 159.445C99.7198 159.185 100.107 159.12 100.527 159.12C100.995 159.136 101.204 159.526 101.398 159.884C101.253 160.598 101.463 161.232 102.366 161.898C104.303 163.328 107.498 163.864 109.838 163.897C110.742 163.913 111.759 163.929 112.775 163.881C113.647 167.634 114.534 171.387 115.519 175.108C116.213 177.741 116.955 180.373 117.423 183.07C117.826 185.377 117.455 187.49 116.81 189.586C113.921 191.081 111.065 192.624 108.305 194.428C105.884 196.02 103.383 197.418 100.898 198.88C100.285 199.237 99.8166 199.692 99.4131 200.18C99.3809 200.131 99.3647 200.082 99.3324 200.034C99.284 199.952 99.1711 199.887 99.0742 199.887C95.2819 199.741 93.7004 206.712 93.1033 209.36C92.4255 212.399 92.022 215.518 91.667 218.606C91.4572 220.458 91.6831 222.489 92.6675 224.081C93.4744 225.381 94.9268 225.121 95.9758 224.423C97.5573 223.35 98.1382 220.604 98.5094 218.882C99.1711 215.941 99.3809 212.87 99.9295 209.88C100.172 208.564 100.349 207.248 100.462 205.916C101.14 203.072 103.528 201.561 106.013 200.229C108.773 198.766 111.484 197.239 114.244 195.809C114.437 195.711 114.631 195.614 114.825 195.516C113.453 199.92 112.436 204.404 111.775 208.97C111.355 211.927 111 214.885 110.597 217.842C110.225 220.588 110.597 223.35 110.193 226.064C110.177 226.194 110.193 226.291 110.225 226.372C109.596 228.517 109.693 232.124 109.887 232.888C110.548 235.423 114.954 233.847 116.358 233.278C120.295 231.653 124.169 228.94 127.461 226.259C129.591 224.52 133.044 222.278 134.013 219.548C134.077 219.369 134.077 219.223 134.045 219.077C134.497 217.988 134.303 216.981 133.335 216.006C132.06 214.722 129.72 215.437 128.3 215.941C124.298 217.371 120.941 220.555 117.197 222.635C116.907 222.749 116.632 222.879 116.342 223.009C115.874 223.22 115.051 223.74 114.486 223.594C113.647 222.993 115.293 215.551 115.535 214.641C117.116 208.564 119.182 202.585 121.183 196.621C121.732 194.997 122.184 193.372 122.506 191.698C126.089 189.927 129.655 188.107 133.028 185.995C135.255 184.614 137.514 182.956 139.128 180.844C140.516 179.024 139.984 176.766 139.354 174.767C137.95 170.201 135.949 165.847 134.158 161.427C134.707 161.248 135.223 161.037 135.691 160.842C137.321 160.127 140.29 159.039 140.839 157.138C140.871 157.024 140.887 156.91 140.903 156.796C140.92 156.78 140.936 156.78 140.952 156.764C140.968 156.731 141 156.683 140.968 156.65C140.952 156.634 140.952 156.634 140.952 156.634C140.968 156.601 140.984 156.585 140.984 156.553C141.033 156.455 141.065 156.341 141.097 156.244C141.097 156.228 141.113 156.211 141.113 156.195C141.178 156.114 141.242 156.016 141.307 155.951C141.452 155.821 141.63 155.724 141.775 155.61C141.92 155.756 142.114 155.854 142.356 155.87C143.227 155.935 144.05 154.652 144.486 154.083C146.648 151.223 148.052 146.056 146.987 142.579C146.955 142.465 146.891 142.4 146.826 142.368C146.794 142.286 146.745 142.238 146.681 142.173C146.455 141.896 145.987 141.75 145.551 141.75C145.632 141.084 145.47 140.385 145.244 139.719C145.115 138.939 145.002 138.127 144.631 137.412C144.389 136.957 144.034 136.015 143.502 135.803C143.356 135.755 143.195 135.771 143.034 135.82C143.017 135.82 143.001 135.82 142.985 135.82C141.178 136.551 139.419 137.103 137.74 138.159C137.046 138.598 136.175 139.069 135.433 139.654C135.433 139.622 135.433 139.605 135.449 139.573C134.287 140.759 132.237 136.421 131.915 135.527C131.818 135.267 131.737 135.023 131.656 134.763C131.35 133.983 131.108 133.22 130.963 132.537C130.64 131.14 130.866 129.791 131.156 128.459C131.205 127.874 131.253 127.273 131.398 126.72C131.463 126.477 131.543 126.249 131.624 126.022C131.899 126.233 132.157 126.428 132.431 126.639C137.466 130.458 142.501 134.308 147.827 137.737C153.249 141.23 166.207 148.185 170.726 139.784C171.259 138.403 171.436 136.892 171.468 135.316C171.13 132.375 169.451 129.418 167.757 127.338C164.448 123.292 158.59 121.293 153.83 119.49C150.36 118.174 146.907 117.166 143.372 116.386C147.891 115.525 152.281 113.998 156.476 112.097C161.931 109.529 167.16 106.215 171.291 101.714ZM109.919 124.137C110.58 123.633 111.242 123.129 111.904 122.593C111.291 124.316 110.661 126.022 109.951 127.744C109.064 129.889 108.192 132.05 107.401 134.227C107.369 134.13 107.321 134.048 107.305 133.951C106.691 132.245 106.336 130.474 105.868 128.735C105.771 128.345 105.626 127.939 105.465 127.533C106.949 126.395 108.434 125.274 109.919 124.137ZM122.926 186.417C122.861 186.45 122.813 186.482 122.748 186.515C122.522 183.59 121.78 180.665 121.199 177.806C120.134 172.509 119.263 167.212 117.939 161.996C118.149 161.996 118.375 161.996 118.585 162.012C118.827 162.012 119.069 162.077 119.295 162.077C119.602 162.565 120.005 162.938 120.634 163.003C122.006 163.15 123.781 162.955 125.088 162.532C126.057 162.207 126.831 161.882 127.041 160.826C129.349 164.921 131.624 169.031 133.157 173.516C133.641 174.93 134.013 176.425 134.061 177.919C134.142 179.95 132.157 181.104 130.737 182.144C128.397 183.866 125.524 185.069 122.926 186.417ZM79.0795 85.8716C78.9181 86.3266 78.7568 86.8303 78.6115 87.334C78.1435 87.1553 77.6917 86.9765 77.2237 86.8141C77.8692 86.6191 78.5308 86.2616 79.0795 85.8716ZM90.1178 119.474C90.5051 119.555 90.8924 119.636 91.2797 119.717C90.4728 119.896 89.6498 120.075 88.8429 120.286C89.2786 120.026 89.6982 119.75 90.1178 119.474Z" fill="url(#paint1_linear)" fill-opacity="0.3"/>
</g>
</g>
<defs>
<filter id="filter0_d" x="0" y="0" width="232" height="232" filterUnits="userSpaceOnUse" color-interpolation-filters="sRGB">
<feFlood flood-opacity="0" result="BackgroundImageFix"/>
<feColorMatrix in="SourceAlpha" type="matrix" values="0 0 0 0 0 0 0 0 0 0 0 0 0 0 0 0 0 0 127 0"/>
<feOffset/>
<feGaussianBlur stdDeviation="13"/>
<feColorMatrix type="matrix" values="0 0 0 0 0.82079 0 0 0 0 0.82079 0 0 0 0 0.82079 0 0 0 0.5 0"/>
<feBlend mode="normal" in2="BackgroundImageFix" result="effect1_dropShadow"/>
<feBlend mode="normal" in="SourceGraphic" in2="effect1_dropShadow" result="shape"/>
</filter>
<filter id="filter1_b" x="39.8572" y="32.1428" width="154.857" height="219.143" filterUnits="userSpaceOnUse" color-interpolation-filters="sRGB">
<feFlood flood-opacity="0" result="BackgroundImageFix"/>
<feGaussianBlur in="BackgroundImage" stdDeviation="8.5"/>
<feComposite in2="SourceAlpha" operator="in" result="effect1_backgroundBlur"/>
<feBlend mode="normal" in="SourceGraphic" in2="effect1_backgroundBlur" result="shape"/>
</filter>
<linearGradient id="paint0_linear" x1="56.8572" y1="49.1428" x2="226.348" y2="159.783" gradientUnits="userSpaceOnUse">
<stop stop-color="white"/>
<stop offset="1" stop-color="#B0A4FF"/>
</linearGradient>
<linearGradient id="paint1_linear" x1="117.286" y1="49.1428" x2="117.286" y2="234.286" gradientUnits="userSpaceOnUse">
<stop stop-color="#639B98"/>
<stop offset="1" stop-color="#6E2B2B" stop-opacity="0"/>
</linearGradient>
</defs>
</svg>
