<svg width="26" height="26" viewBox="0 0 26 26" fill="none" xmlns="http://www.w3.org/2000/svg">
<circle r="13" transform="matrix(-1 0 0 1 13 13)" fill="#5B41FF"/>
<path d="M18.3334 19V17.6667C18.3334 16.9594 18.0525 16.2811 17.5524 15.781C17.0523 15.281 16.374 15 15.6667 15H10.3334C9.62617 15 8.94789 15.281 8.4478 15.781C7.9477 16.2811 7.66675 16.9594 7.66675 17.6667V19" stroke="white" stroke-linecap="round" stroke-linejoin="round"/>
<path d="M12.9999 12.3333C14.4727 12.3333 15.6666 11.1394 15.6666 9.66667C15.6666 8.19391 14.4727 7 12.9999 7C11.5272 7 10.3333 8.19391 10.3333 9.66667C10.3333 11.1394 11.5272 12.3333 12.9999 12.3333Z" stroke="white" stroke-linecap="round" stroke-linejoin="round"/>
</svg>
