<svg width="38" height="38" viewBox="0 0 38 38" fill="none" xmlns="http://www.w3.org/2000/svg">
<path d="M30 16.3363C30 23.5128 21.7222 29.7999 19.5283 31.3401C19.2071 31.5657 18.7929 31.5657 18.4717 31.3401C16.2778 29.7999 8 23.5128 8 16.3363C8 13.5154 9.15893 10.81 11.2218 8.81527C13.2847 6.82056 16.0826 5.69995 19 5.69995C21.9174 5.69995 24.7153 6.82056 26.7782 8.81527C28.8411 10.81 30 13.5154 30 16.3363Z" stroke="#BA8CFF" stroke-width="2" stroke-linecap="round" stroke-linejoin="round"/>
<path d="M19 21C21.7614 21 24 18.7614 24 16C24 13.2386 21.7614 11 19 11C16.2386 11 14 13.2386 14 16C14 18.7614 16.2386 21 19 21Z" stroke="#BA8CFF" stroke-width="2" stroke-linecap="round" stroke-linejoin="round"/>
</svg>
