<svg width="38" height="38" viewBox="0 0 38 38" fill="none" xmlns="http://www.w3.org/2000/svg">
<path d="M8 16.3363C8 23.5128 16.2778 29.7999 18.4717 31.3401C18.7929 31.5657 19.2071 31.5657 19.5283 31.3401C21.7222 29.7999 30 23.5128 30 16.3363C30 13.5154 28.8411 10.81 26.7782 8.81527C24.7153 6.82056 21.9174 5.69995 19 5.69995C16.0826 5.69995 13.2847 6.82056 11.2218 8.81527C9.15893 10.81 8 13.5154 8 16.3363Z" stroke="#BCBCBC" stroke-width="2" stroke-linecap="round" stroke-linejoin="round"/>
<path d="M19 21C16.2386 21 14 18.7614 14 16C14 13.2386 16.2386 11 19 11C21.7614 11 24 13.2386 24 16C24 18.7614 21.7614 21 19 21Z" stroke="#BCBCBC" stroke-width="2" stroke-linecap="round" stroke-linejoin="round"/>
</svg>
