<svg width="26" height="26" viewBox="0 0 26 26" fill="none" xmlns="http://www.w3.org/2000/svg">
<circle r="13" transform="matrix(-1 0 0 1 13 13)" fill="#5B41FF"/>
<path d="M15.3333 9.99992L17.6666 7.66659M18.9999 6.33325L17.6666 7.66659L18.9999 6.33325ZM12.5933 12.7399C12.9375 13.0796 13.2111 13.4839 13.3984 13.9298C13.5857 14.3756 13.683 14.8541 13.6846 15.3377C13.6862 15.8213 13.5922 16.3004 13.4079 16.7475C13.2236 17.1945 12.9526 17.6007 12.6107 17.9427C12.2688 18.2846 11.8626 18.5556 11.4155 18.7399C10.9684 18.9242 10.4893 19.0182 10.0057 19.0166C9.52212 19.015 9.04363 18.9177 8.5978 18.7304C8.15196 18.5431 7.74758 18.2695 7.40794 17.9253C6.74003 17.2337 6.37045 16.3075 6.3788 15.3461C6.38715 14.3847 6.77277 13.4651 7.4526 12.7853C8.13243 12.1054 9.05208 11.7198 10.0135 11.7114C10.9749 11.7031 11.9011 12.0727 12.5926 12.7406L12.5933 12.7399ZM12.5933 12.7399L15.3333 9.99992L12.5933 12.7399ZM15.3333 9.99992L17.3333 11.9999L19.6666 9.66659L17.6666 7.66659L15.3333 9.99992Z" stroke="white" stroke-linecap="round" stroke-linejoin="round"/>
</svg>
