<svg width="38" height="38" viewBox="0 0 38 38" fill="none" xmlns="http://www.w3.org/2000/svg">
<mask id="path-1-inside-1" fill="white">
<path fill-rule="evenodd" clip-rule="evenodd" d="M26.9688 6.69046C23.9977 7.31187 21.3757 8.8688 19.4293 11.0506C17.4829 8.86878 14.861 7.31183 11.8898 6.69041L8.84798 6.05422C7.04583 5.6773 5.47598 7.32663 5.94137 9.10798L6.1215 9.79748C7.59668 15.444 12.1407 19.7691 17.8531 20.9638L18.4293 21.0843C18.7705 21.1557 19.1059 21.1753 19.4291 21.1497C19.7524 21.1754 20.0879 21.1558 20.4293 21.0844L21.0055 20.9639C26.7179 19.7691 31.2619 15.444 32.7371 9.79752L32.9173 9.10803C33.3827 7.32667 31.8128 5.67734 30.0107 6.05426L26.9688 6.69046ZM22.4403 21.1307C20.8237 20.7185 19.3371 22.1487 19.6867 23.7801L19.7483 24.0675C20.5219 27.6778 23.2739 30.5382 26.8517 31.4506L27.4246 31.5967C28.576 31.8903 29.6349 30.8715 29.3859 29.7096L29.011 27.9601C28.2955 24.6205 25.7498 21.9746 22.4403 21.1307ZM16.4161 21.1309C18.0327 20.7187 19.5193 22.149 19.1698 23.7803L19.1082 24.0677C18.3346 27.678 15.5825 30.5385 12.0048 31.4508L11.4319 31.5969C10.2804 31.8905 9.22156 30.8718 9.47053 29.7098L9.84541 27.9603C10.561 24.6208 13.1067 21.9749 16.4161 21.1309Z"/>
</mask>
<path d="M19.4293 11.0506L20.9218 12.382L19.4293 14.055L17.9369 12.382L19.4293 11.0506ZM26.9688 6.69046L26.5594 4.73282L26.9688 6.69046ZM11.8898 6.69041L12.2993 4.73277L11.8898 6.69041ZM8.84798 6.05422L9.25742 4.09658L8.84798 6.05422ZM5.94137 9.10798L4.00632 9.61353L4.00632 9.61353L5.94137 9.10798ZM6.1215 9.79748L8.05656 9.29194V9.29194L6.1215 9.79748ZM17.8531 20.9638L18.2626 19.0062H18.2626L17.8531 20.9638ZM18.4293 21.0843L18.0199 23.042H18.0198L18.4293 21.0843ZM19.4291 21.1497L19.271 19.1559L19.4292 19.1434L19.5875 19.156L19.4291 21.1497ZM20.4293 21.0844L20.8388 23.042H20.8388L20.4293 21.0844ZM21.0055 20.9639L20.596 19.0062H20.5961L21.0055 20.9639ZM32.7371 9.79752L30.8021 9.29198L32.7371 9.79752ZM32.9173 9.10803L34.8523 9.61357L32.9173 9.10803ZM30.0107 6.05426L29.6012 4.09662L30.0107 6.05426ZM19.6867 23.7801L17.7311 24.1991L19.6867 23.7801ZM22.4403 21.1307L21.9461 23.0687H21.9461L22.4403 21.1307ZM19.7483 24.0675L21.7039 23.6485H21.7039L19.7483 24.0675ZM26.8517 31.4506L26.3575 33.3885L26.3575 33.3885L26.8517 31.4506ZM27.4246 31.5967L27.9188 29.6587L27.9188 29.6587L27.4246 31.5967ZM29.3859 29.7096L31.3415 29.2906H31.3415L29.3859 29.7096ZM29.011 27.9601L27.0554 28.3791L29.011 27.9601ZM19.1698 23.7803L21.1254 24.1993V24.1994L19.1698 23.7803ZM16.4161 21.1309L16.9103 23.0689L16.4161 21.1309ZM19.1082 24.0677L17.1526 23.6487V23.6487L19.1082 24.0677ZM12.0048 31.4508L12.499 33.3888H12.499L12.0048 31.4508ZM11.4319 31.5969L10.9377 29.6589L10.9377 29.6589L11.4319 31.5969ZM9.47053 29.7098L7.51492 29.2908V29.2908L9.47053 29.7098ZM9.84541 27.9603L11.801 28.3794L9.84541 27.9603ZM17.9369 9.71923C20.1623 7.22461 23.1613 5.44353 26.5594 4.73282L27.3783 8.6481C24.8341 9.1802 22.5891 10.513 20.9218 12.382L17.9369 9.71923ZM12.2993 4.73277C15.6974 5.44349 18.6963 7.22459 20.9218 9.71923L17.9369 12.382C16.2695 10.513 14.0245 9.18016 11.4804 8.64806L12.2993 4.73277ZM9.25742 4.09658L12.2993 4.73277L11.4804 8.64806L8.43854 8.01186L9.25742 4.09658ZM4.00632 9.61353C3.16555 6.39532 6.00163 3.41563 9.25742 4.09658L8.43854 8.01186C8.09002 7.93897 7.78642 8.25793 7.87642 8.60244L4.00632 9.61353ZM4.18645 10.303L4.00632 9.61353L7.87642 8.60244L8.05656 9.29194L4.18645 10.303ZM17.4437 22.9215C10.9884 21.5713 5.85347 16.6838 4.18645 10.303L8.05656 9.29194C9.3399 14.2042 13.293 17.9668 18.2626 19.0062L17.4437 22.9215ZM18.0198 23.042L17.4437 22.9215L18.2626 19.0062L18.8387 19.1267L18.0198 23.042ZM19.5871 23.1434C19.0739 23.1841 18.5475 23.1523 18.0199 23.042L18.8387 19.1267C18.9936 19.1591 19.1378 19.1665 19.271 19.1559L19.5871 23.1434ZM20.8388 23.042C20.3108 23.1524 19.7841 23.1842 19.2707 23.1434L19.5875 19.156C19.7207 19.1665 19.865 19.1591 20.0199 19.1267L20.8388 23.042ZM21.4149 22.9215L20.8388 23.042L20.0199 19.1267L20.596 19.0062L21.4149 22.9215ZM34.6722 10.3031C33.0052 16.6839 27.8702 21.5714 21.4149 22.9215L20.5961 19.0062C25.5656 17.9668 29.5187 14.2042 30.8021 9.29198L34.6722 10.3031ZM34.8523 9.61357L34.6722 10.3031L30.8021 9.29198L30.9822 8.60248L34.8523 9.61357ZM29.6012 4.09662C32.857 3.41568 35.6931 6.39536 34.8523 9.61357L30.9822 8.60248C31.0722 8.25798 30.7686 7.93901 30.4201 8.0119L29.6012 4.09662ZM26.5594 4.73282L29.6012 4.09662L30.4201 8.0119L27.3783 8.6481L26.5594 4.73282ZM17.7311 24.1991C17.0705 21.1165 19.8797 18.4137 22.9345 19.1927L21.9461 23.0687C21.7677 23.0232 21.6037 23.181 21.6423 23.361L17.7311 24.1991ZM17.7926 24.4865L17.7311 24.1991L21.6423 23.361L21.7039 23.6485L17.7926 24.4865ZM26.3575 33.3885C22.0437 32.2885 18.7254 28.8396 17.7926 24.4865L21.7039 23.6485C22.3183 26.516 24.5042 28.7879 27.3459 29.5126L26.3575 33.3885ZM26.9304 33.5346L26.3575 33.3885L27.3459 29.5126L27.9188 29.6587L26.9304 33.5346ZM31.3415 29.2906C31.9015 31.9038 29.5201 34.195 26.9304 33.5346L27.9188 29.6587C27.632 29.5855 27.3683 29.8393 27.4303 30.1286L31.3415 29.2906ZM30.9666 27.541L31.3415 29.2906L27.4303 30.1286L27.0554 28.3791L30.9666 27.541ZM22.9345 19.1927C26.98 20.2243 30.0919 23.4587 30.9666 27.541L27.0554 28.3791C26.499 25.7823 24.5195 23.7249 21.9461 23.0687L22.9345 19.1927ZM17.2142 23.3613C17.2527 23.1813 17.0887 23.0234 16.9103 23.0689L15.9219 19.193C18.9768 18.414 21.7859 21.1167 21.1254 24.1993L17.2142 23.3613ZM17.1526 23.6487L17.2142 23.3613L21.1254 24.1994L21.0638 24.4868L17.1526 23.6487ZM11.5106 29.5128C14.3523 28.7882 16.5381 26.5162 17.1526 23.6487L21.0638 24.4868C20.131 28.8398 16.8128 32.2887 12.499 33.3888L11.5106 29.5128ZM10.9377 29.6589L11.5106 29.5128L12.499 33.3888L11.9261 33.5349L10.9377 29.6589ZM11.4261 30.1289C11.4881 29.8395 11.2244 29.5858 10.9377 29.6589L11.9261 33.5349C9.33639 34.1953 6.95497 31.904 7.51492 29.2908L11.4261 30.1289ZM11.801 28.3794L11.4261 30.1289L7.51492 29.2908L7.8898 27.5413L11.801 28.3794ZM16.9103 23.0689C14.3369 23.7251 12.3574 25.7826 11.801 28.3794L7.8898 27.5413C8.76454 23.459 11.8764 20.2246 15.9219 19.193L16.9103 23.0689Z" fill="white" mask="url(#path-1-inside-1)"/>
</svg>
