<svg width="38" height="38" viewBox="0 0 38 38" fill="none" xmlns="http://www.w3.org/2000/svg">
<mask id="path-1-inside-1" fill="white">
<path fill-rule="evenodd" clip-rule="evenodd" d="M11.0312 6.69046C14.0023 7.31187 16.6243 8.8688 18.5707 11.0506C20.5171 8.86878 23.139 7.31183 26.1102 6.69041L29.152 6.05422C30.9542 5.6773 32.524 7.32663 32.0586 9.10798L31.8785 9.79748C30.4033 15.444 25.8593 19.7691 20.1469 20.9638L19.5707 21.0843C19.2295 21.1557 18.8941 21.1753 18.5709 21.1497C18.2476 21.1754 17.9121 21.1558 17.5707 21.0844L16.9945 20.9639C11.2821 19.7691 6.73805 15.444 5.26287 9.79752L5.08274 9.10803C4.61735 7.32667 6.18719 5.67734 7.98935 6.05426L11.0312 6.69046ZM15.5597 21.1307C17.1763 20.7185 18.6629 22.1487 18.3133 23.7801L18.2517 24.0675C17.4781 27.6778 14.7261 30.5382 11.1483 31.4506L10.5754 31.5967C9.42397 31.8903 8.36511 30.8715 8.61408 29.7096L8.98896 27.9601C9.70454 24.6205 12.2502 21.9746 15.5597 21.1307ZM21.5839 21.1309C19.9673 20.7187 18.4807 22.149 18.8302 23.7803L18.8918 24.0677C19.6654 27.678 22.4175 30.5385 25.9952 31.4508L26.5681 31.5969C27.7196 31.8905 28.7784 30.8718 28.5295 29.7098L28.1546 27.9603C27.439 24.6208 24.8933 21.9749 21.5839 21.1309Z"/>
</mask>
<path d="M18.5707 11.0506L17.0782 12.382L18.5707 14.055L20.0631 12.382L18.5707 11.0506ZM11.0312 6.69046L11.4406 4.73282L11.0312 6.69046ZM26.1102 6.69041L25.7007 4.73277L26.1102 6.69041ZM29.152 6.05422L28.7426 4.09658L29.152 6.05422ZM32.0586 9.10798L33.9937 9.61353L33.9937 9.61353L32.0586 9.10798ZM31.8785 9.79748L29.9434 9.29194V9.29194L31.8785 9.79748ZM20.1469 20.9638L19.7374 19.0062H19.7374L20.1469 20.9638ZM19.5707 21.0843L19.9801 23.042H19.9802L19.5707 21.0843ZM18.5709 21.1497L18.729 19.1559L18.5708 19.1434L18.4125 19.156L18.5709 21.1497ZM17.5707 21.0844L17.1612 23.042H17.1612L17.5707 21.0844ZM16.9945 20.9639L17.404 19.0062H17.4039L16.9945 20.9639ZM5.26287 9.79752L7.19792 9.29198L5.26287 9.79752ZM5.08274 9.10803L3.14768 9.61357L5.08274 9.10803ZM7.98935 6.05426L8.39878 4.09662L7.98935 6.05426ZM18.3133 23.7801L20.2689 24.1991L18.3133 23.7801ZM15.5597 21.1307L16.0539 23.0687H16.0539L15.5597 21.1307ZM18.2517 24.0675L16.2961 23.6485H16.2961L18.2517 24.0675ZM11.1483 31.4506L11.6425 33.3885L11.6425 33.3885L11.1483 31.4506ZM10.5754 31.5967L10.0812 29.6587L10.0812 29.6587L10.5754 31.5967ZM8.61408 29.7096L6.65847 29.2906H6.65847L8.61408 29.7096ZM8.98896 27.9601L10.9446 28.3791L8.98896 27.9601ZM18.8302 23.7803L16.8746 24.1993V24.1994L18.8302 23.7803ZM21.5839 21.1309L21.0897 23.0689L21.5839 21.1309ZM18.8918 24.0677L20.8474 23.6487V23.6487L18.8918 24.0677ZM25.9952 31.4508L25.501 33.3888H25.501L25.9952 31.4508ZM26.5681 31.5969L27.0623 29.6589L27.0623 29.6589L26.5681 31.5969ZM28.5295 29.7098L30.4851 29.2908V29.2908L28.5295 29.7098ZM28.1546 27.9603L26.199 28.3794L28.1546 27.9603ZM20.0631 9.71923C17.8377 7.22461 14.8387 5.44353 11.4406 4.73282L10.6217 8.6481C13.1659 9.1802 15.4109 10.513 17.0782 12.382L20.0631 9.71923ZM25.7007 4.73277C22.3026 5.44349 19.3037 7.22459 17.0782 9.71923L20.0631 12.382C21.7305 10.513 23.9755 9.18016 26.5196 8.64806L25.7007 4.73277ZM28.7426 4.09658L25.7007 4.73277L26.5196 8.64806L29.5615 8.01186L28.7426 4.09658ZM33.9937 9.61353C34.8345 6.39532 31.9984 3.41563 28.7426 4.09658L29.5615 8.01186C29.91 7.93897 30.2136 8.25793 30.1236 8.60244L33.9937 9.61353ZM33.8135 10.303L33.9937 9.61353L30.1236 8.60244L29.9434 9.29194L33.8135 10.303ZM20.5563 22.9215C27.0116 21.5713 32.1465 16.6838 33.8135 10.303L29.9434 9.29194C28.6601 14.2042 24.707 17.9668 19.7374 19.0062L20.5563 22.9215ZM19.9802 23.042L20.5563 22.9215L19.7374 19.0062L19.1613 19.1267L19.9802 23.042ZM18.4129 23.1434C18.9261 23.1841 19.4525 23.1523 19.9801 23.042L19.1613 19.1267C19.0064 19.1591 18.8622 19.1665 18.729 19.1559L18.4129 23.1434ZM17.1612 23.042C17.6892 23.1524 18.2159 23.1842 18.7293 23.1434L18.4125 19.156C18.2793 19.1665 18.135 19.1591 17.9801 19.1267L17.1612 23.042ZM16.5851 22.9215L17.1612 23.042L17.9801 19.1267L17.404 19.0062L16.5851 22.9215ZM3.32782 10.3031C4.99484 16.6839 10.1298 21.5714 16.5851 22.9215L17.4039 19.0062C12.4344 17.9668 8.48127 14.2042 7.19792 9.29198L3.32782 10.3031ZM3.14768 9.61357L3.32782 10.3031L7.19792 9.29198L7.01779 8.60248L3.14768 9.61357ZM8.39878 4.09662C5.143 3.41568 2.30691 6.39536 3.14768 9.61357L7.01779 8.60248C6.92778 8.25798 7.23139 7.93901 7.57991 8.0119L8.39878 4.09662ZM11.4406 4.73282L8.39878 4.09662L7.57991 8.0119L10.6217 8.6481L11.4406 4.73282ZM20.2689 24.1991C20.9295 21.1165 18.1203 18.4137 15.0655 19.1927L16.0539 23.0687C16.2323 23.0232 16.3963 23.181 16.3577 23.361L20.2689 24.1991ZM20.2074 24.4865L20.2689 24.1991L16.3577 23.361L16.2961 23.6485L20.2074 24.4865ZM11.6425 33.3885C15.9563 32.2885 19.2746 28.8396 20.2074 24.4865L16.2961 23.6485C15.6817 26.516 13.4958 28.7879 10.6541 29.5126L11.6425 33.3885ZM11.0696 33.5346L11.6425 33.3885L10.6541 29.5126L10.0812 29.6587L11.0696 33.5346ZM6.65847 29.2906C6.09852 31.9038 8.47995 34.195 11.0696 33.5346L10.0812 29.6587C10.368 29.5855 10.6317 29.8393 10.5697 30.1286L6.65847 29.2906ZM7.03335 27.541L6.65847 29.2906L10.5697 30.1286L10.9446 28.3791L7.03335 27.541ZM15.0655 19.1927C11.02 20.2243 7.90809 23.4587 7.03335 27.541L10.9446 28.3791C11.501 25.7823 13.4805 23.7249 16.0539 23.0687L15.0655 19.1927ZM20.7858 23.3613C20.7473 23.1813 20.9113 23.0234 21.0897 23.0689L22.0781 19.193C19.0232 18.414 16.2141 21.1167 16.8746 24.1993L20.7858 23.3613ZM20.8474 23.6487L20.7858 23.3613L16.8746 24.1994L16.9362 24.4868L20.8474 23.6487ZM26.4894 29.5128C23.6477 28.7882 21.4619 26.5162 20.8474 23.6487L16.9362 24.4868C17.869 28.8398 21.1872 32.2887 25.501 33.3888L26.4894 29.5128ZM27.0623 29.6589L26.4894 29.5128L25.501 33.3888L26.0739 33.5349L27.0623 29.6589ZM26.5739 30.1289C26.5119 29.8395 26.7756 29.5858 27.0623 29.6589L26.0739 33.5349C28.6636 34.1953 31.045 31.904 30.4851 29.2908L26.5739 30.1289ZM26.199 28.3794L26.5739 30.1289L30.4851 29.2908L30.1102 27.5413L26.199 28.3794ZM21.0897 23.0689C23.6631 23.7251 25.6426 25.7826 26.199 28.3794L30.1102 27.5413C29.2355 23.459 26.1236 20.2246 22.0781 19.193L21.0897 23.0689Z" fill="#BCBCBC" mask="url(#path-1-inside-1)"/>
</svg>
